<!-- Generator: Adobe Illustrator 21.0.2, SVG Export Plug-In  -->
<svg version="1.1"
	 xmlns="http://www.w3.org/2000/svg" xmlns:xlink="http://www.w3.org/1999/xlink" xmlns:a="http://ns.adobe.com/AdobeSVGViewerExtensions/3.0/"
	 x="0px" y="0px" width="1000px" height="1000px" viewBox="0 0 1000 1000" style="enable-background:new 0 0 1000 1000;"
	 xml:space="preserve">
<style type="text/css">
	.st0{fill:#17CDD6;}
	.st1{fill:#109097;}
	.st2{fill:#0F848A;}
	.st3{fill:#14B0B8;}
	.st4{fill:#18D3DD;}
</style>
<defs>
</defs>
<g>
	<circle class="st0" cx="500" cy="500" r="351.206"/>
	<circle class="st1" cx="500" cy="500" r="253.351"/>
	<circle class="st2" cx="500" cy="500" r="193.029"/>
	<circle class="st3" cx="500" cy="500" r="80.429"/>
	<path class="st4" d="M53.619,500c0-119.233,46.432-231.329,130.742-315.639S380.767,53.619,500,53.619
		c98.422,0,191.964,31.666,269.046,90.132l38.255-38.255c-36.319-28.386-76.209-51.463-119.164-68.882
		C628.225,12.319,564.927,0,500,0S371.775,12.319,311.863,36.614c-62.041,25.159-117.695,62.112-165.416,109.833
		S61.773,249.822,36.614,311.863C12.319,371.775,0,435.073,0,500s12.319,128.225,36.614,188.137
		c17.419,42.954,40.496,82.845,68.882,119.164l38.255-38.255C85.286,691.964,53.619,598.422,53.619,500z"/>
	<path class="st4" d="M963.386,688.137C987.681,628.225,1000,564.927,1000,500s-12.319-128.225-36.614-188.137
		c-17.419-42.954-40.496-82.845-68.882-119.164l-38.255,38.255c58.465,77.081,90.132,170.624,90.132,269.046
		c0,119.233-46.432,231.329-130.742,315.639S619.233,946.381,500,946.381c-98.422,0-191.964-31.667-269.046-90.132l-38.255,38.255
		c36.319,28.386,76.209,51.463,119.164,68.882C371.775,987.681,435.073,1000,500,1000s128.225-12.319,188.137-36.614
		c62.041-25.159,117.695-62.112,165.416-109.833C901.274,805.832,938.227,750.178,963.386,688.137z"/>
</g>
</svg>